# xmcd
#
# Track frame offsets:
#	150
#	17090
#	34407
#	53692
#	68475
#	89915
#	112467
#	129425
#	144125
#	164547
#	182462
#	201437
#	218822
#	239732
#
# Disc length: 3655 seconds
# Revision: 3
# Processed by: cddbd v1.5.2PL0 Copyright (c) Steve Scherf et al.
# Submitted via: dBpowerAMP V12.0
#
DISCID=d30e450e
DTITLE=Syl Johnson - Back in The Game
DYEAR=1994
DGENRE=Soul
TTITLE0=Back in The Game
TTITLE1=I Like Your Style
TTITLE2=I Can't Stop
TTITLE3=Please Don't Give up on me
TTITLE4=Keep on Loving me
TTITLE5=Take me to The River
TTITLE6=Ghetto Woman
TTITLE7=Watch What You do to me
TTITLE8=Dipped in The Water
TTITLE9=Driving Wheel
TTITLE10=Anyway The Wind Blows
TTITLE11=Clean up Man
TTITLE12=I Will Rise Again
TTITLE13=All of Your Love
EXTD=
EXTT0=
EXTT1=
EXTT2=
EXTT3=
EXTT4=
EXTT5=
EXTT6=
EXTT7=
EXTT8=
EXTT9=
EXTT10=
EXTT11=
EXTT12=
EXTT13=
PLAYORDER=
